<svg width="35" height="35" viewBox="0 0 35 35" fill="none" xmlns="http://www.w3.org/2000/svg">
<circle cx="17.5" cy="17.5" r="17.5" fill="white"/>
<g clip-path="url(#clip0_58_13)">
<path d="M10.0744 18.4627C10.6877 17.8439 11.4982 17.467 12.3586 17.3874C11.6159 16.7192 11.1473 15.7546 11.1473 14.677C11.1473 12.661 12.7809 11.0273 14.7973 11.0273C16.7231 11.0273 18.2999 12.519 18.4368 14.4095C16.7235 15.1507 15.5212 16.858 15.5212 18.8403C15.5212 19.5642 15.6859 20.2716 15.9922 20.9135C15.551 21.1441 15.1444 21.4422 14.7899 21.7998C13.8809 22.715 13.3644 23.9805 13.3742 25.2706L13.375 25.2969L13.3758 25.3192L13.408 25.9298H9.036L8.99992 21.0947C8.99247 20.1085 9.37873 19.1626 10.0744 18.4627Z" fill="#4356B4"/>
<path d="M17.9085 21.5516C17.1661 20.8838 16.696 19.9187 16.696 18.8411C16.696 16.8247 18.3304 15.1907 20.3464 15.1907C22.3628 15.1907 23.9968 16.8247 23.9968 18.8411C23.9968 19.9167 23.5286 20.881 22.7875 21.5492C24.6854 21.6963 26.1846 23.268 26.1983 25.2032L26.2344 25.9298H20.6844H14.5855L14.5494 25.2577C14.5423 24.2718 14.929 23.326 15.6242 22.626C16.2383 22.0068 17.0485 21.6312 17.9085 21.5516Z" fill="#4356B4"/>
<path d="M24.6456 12.4602V13.8162C24.6456 14.3778 24.1891 14.8338 23.6272 14.8338C23.0645 14.8338 22.6088 14.3778 22.6088 13.8162V12.4602H21.2544C20.6924 12.4602 20.2364 12.0037 20.2364 11.4418C20.2364 10.8803 20.6924 10.4238 21.2544 10.4238H22.6088V9.08779C22.6088 8.52586 23.0645 8.07019 23.6272 8.07019C24.1891 8.07019 24.6456 8.52586 24.6456 9.08779V10.4234H25.982C26.5447 10.4234 27 10.8799 27 11.4414C27 12.0034 26.5447 12.4598 25.982 12.4598H24.6456V12.4602Z" fill="#4356B4"/>
</g>
<defs>
<clipPath id="clip0_58_13">
<rect width="18" height="18" fill="white" transform="matrix(-1 0 0 1 27 8)"/>
</clipPath>
</defs>
</svg>
