<svg width="35" height="35" viewBox="0 0 35 35" fill="none" xmlns="http://www.w3.org/2000/svg">
<circle cx="17.5" cy="17.5" r="17.5" fill="white"/>
<path d="M14.9688 11C10.5747 11 7 14.154 7 18.0312C7 19.6691 7.64819 21.2562 8.82784 22.5141C9.06131 23.4768 8.77794 24.4967 8.07481 25.1998C7.78081 25.4938 7.98872 26 8.40625 26C9.742 26 11.0297 25.4768 11.9864 24.5539C12.9331 24.8918 13.9347 25.0625 14.9688 25.0625C19.3628 25.0625 23 21.9085 23 18.0312C23 14.154 19.3628 11 14.9688 11ZM11.2812 19.4375C10.5058 19.4375 9.875 18.8067 9.875 18.0312C9.875 17.2558 10.5058 16.625 11.2812 16.625C12.0567 16.625 12.6875 17.2558 12.6875 18.0312C12.6875 18.8067 12.0567 19.4375 11.2812 19.4375ZM15.0312 19.4375C14.2558 19.4375 13.625 18.8067 13.625 18.0312C13.625 17.2558 14.2558 16.625 15.0312 16.625C15.8067 16.625 16.4375 17.2558 16.4375 18.0312C16.4375 18.8067 15.8067 19.4375 15.0312 19.4375ZM18.7812 19.4375C18.0058 19.4375 17.375 18.8067 17.375 18.0312C17.375 17.2558 18.0058 16.625 18.7812 16.625C19.5567 16.625 20.1875 17.2558 20.1875 18.0312C20.1875 18.8067 19.5567 19.4375 18.7812 19.4375Z" fill="#4356B4"/>
<path d="M25.4092 12.39V13.746C25.4092 14.3076 24.9528 14.7636 24.3908 14.7636C23.8281 14.7636 23.3725 14.3076 23.3725 13.746V12.39H22.018C21.4561 12.39 21 11.9336 21 11.3716C21 10.8101 21.4561 10.3536 22.018 10.3536H23.3725V9.0176C23.3725 8.45567 23.8281 8 24.3908 8C24.9528 8 25.4092 8.45567 25.4092 9.0176V10.3532H26.7456C27.3084 10.3532 27.7636 10.8097 27.7636 11.3712C27.7636 11.9332 27.3084 12.3896 26.7456 12.3896H25.4092V12.39Z" fill="#4356B4"/>
</svg>
