<svg width="351" height="42" viewBox="0 0 351 42" fill="none" xmlns="http://www.w3.org/2000/svg">
<rect width="351" height="42" rx="21" fill="white"/>
<path d="M58.24 15.52V16.904H54.568V27H52.92V16.904H49.24V15.52H58.24ZM61.5241 18.88V27H60.0041V18.88H61.5241ZM60.0201 15.392C60.2015 15.392 60.3348 15.4213 60.4201 15.48C60.5108 15.5387 60.5935 15.6293 60.6681 15.752L61.8521 17.688H60.9881C60.8708 17.688 60.7721 17.672 60.6921 17.64C60.6175 17.6027 60.5428 17.5413 60.4681 17.456L58.5881 15.392H60.0201ZM63.8071 27V18.88H64.7191C64.9325 18.88 65.0658 18.9813 65.1191 19.184L65.2231 19.976C65.5218 19.6187 65.8551 19.3253 66.2231 19.096C66.5911 18.8667 67.0205 18.752 67.5111 18.752C68.0551 18.752 68.4951 18.9013 68.8311 19.2C69.1671 19.4933 69.4098 19.8933 69.5591 20.4C69.6765 20.112 69.8285 19.864 70.0151 19.656C70.2018 19.448 70.4098 19.2773 70.6391 19.144C70.8685 19.0107 71.1111 18.912 71.3671 18.848C71.6285 18.784 71.8925 18.752 72.1591 18.752C73.0285 18.752 73.7005 19.0187 74.1751 19.552C74.6498 20.08 74.8871 20.8373 74.8871 21.824V27H73.3671V21.824C73.3671 21.2107 73.2311 20.7467 72.9591 20.432C72.6925 20.1173 72.3031 19.96 71.7911 19.96C71.5618 19.96 71.3431 20 71.1351 20.08C70.9325 20.16 70.7538 20.2773 70.5991 20.432C70.4445 20.5867 70.3218 20.7813 70.2311 21.016C70.1405 21.2507 70.0951 21.52 70.0951 21.824V27H68.5751V21.824C68.5751 21.1947 68.4471 20.728 68.1911 20.424C67.9405 20.1147 67.5698 19.96 67.0791 19.96C66.7431 19.96 66.4258 20.0507 66.1271 20.232C65.8338 20.408 65.5671 20.6533 65.3271 20.968V27H63.8071ZM82.5928 15.2V22.112H82.9608C83.0674 22.112 83.1581 22.096 83.2328 22.064C83.3074 22.032 83.3848 21.9707 83.4648 21.88L85.9448 19.176C86.0194 19.08 86.0994 19.008 86.1848 18.96C86.2754 18.9067 86.3901 18.88 86.5288 18.88H87.9048L84.9928 22.032C84.8434 22.224 84.6808 22.3733 84.5048 22.48C84.6061 22.544 84.6941 22.6213 84.7688 22.712C84.8488 22.8027 84.9261 22.9013 85.0008 23.008L88.0968 27H86.7368C86.6141 27 86.5048 26.9787 86.4088 26.936C86.3181 26.8933 86.2381 26.816 86.1688 26.704L83.6008 23.424C83.5208 23.3067 83.4408 23.232 83.3608 23.2C83.2861 23.1627 83.1688 23.144 83.0088 23.144H82.5928V27H81.0728V15.2H82.5928ZM90.8679 18.88V27H89.3479V18.88H90.8679ZM91.1639 16.36C91.1639 16.504 91.1345 16.64 91.0759 16.768C91.0225 16.8907 90.9452 17 90.8439 17.096C90.7479 17.192 90.6332 17.2693 90.4999 17.328C90.3719 17.3813 90.2359 17.408 90.0919 17.408C89.9532 17.408 89.8199 17.3813 89.6919 17.328C89.5692 17.2693 89.4599 17.192 89.3639 17.096C89.2679 17 89.1905 16.8907 89.1319 16.768C89.0785 16.64 89.0519 16.504 89.0519 16.36C89.0519 16.216 89.0785 16.08 89.1319 15.952C89.1905 15.8187 89.2679 15.704 89.3639 15.608C89.4599 15.512 89.5692 15.4373 89.6919 15.384C89.8199 15.3253 89.9532 15.296 90.0919 15.296C90.2359 15.296 90.3719 15.3253 90.4999 15.384C90.6332 15.4373 90.7479 15.512 90.8439 15.608C90.9452 15.704 91.0225 15.8187 91.0759 15.952C91.1345 16.08 91.1639 16.216 91.1639 16.36ZM96.5029 18.752C96.9935 18.752 97.4469 18.8347 97.8629 19C98.2789 19.16 98.6389 19.3947 98.9429 19.704C99.2469 20.0133 99.4842 20.3947 99.6549 20.848C99.8255 21.296 99.9109 21.8107 99.9109 22.392C99.9109 22.6267 99.8842 22.784 99.8309 22.864C99.7829 22.944 99.6895 22.984 99.5509 22.984H94.1909C94.2069 23.48 94.2762 23.912 94.3989 24.28C94.5269 24.648 94.6975 24.9547 94.9109 25.2C95.1295 25.44 95.3909 25.6213 95.6949 25.744C95.9989 25.8613 96.3375 25.92 96.7109 25.92C97.0629 25.92 97.3642 25.88 97.6149 25.8C97.8709 25.72 98.0895 25.632 98.2709 25.536C98.4575 25.44 98.6149 25.352 98.7429 25.272C98.8709 25.192 98.9829 25.152 99.0789 25.152C99.2069 25.152 99.3002 25.2 99.3589 25.296L99.7909 25.848C99.6042 26.072 99.3882 26.264 99.1429 26.424C98.8975 26.5787 98.6335 26.7093 98.3509 26.816C98.0682 26.9173 97.7749 26.992 97.4709 27.04C97.1722 27.088 96.8762 27.112 96.5829 27.112C96.0229 27.112 95.5029 27.0187 95.0229 26.832C94.5482 26.64 94.1375 26.3627 93.7909 26C93.4442 25.632 93.1722 25.1787 92.9749 24.64C92.7829 24.096 92.6869 23.472 92.6869 22.768C92.6869 22.2027 92.7749 21.6773 92.9509 21.192C93.1269 20.7013 93.3775 20.2773 93.7029 19.92C94.0335 19.5573 94.4335 19.272 94.9029 19.064C95.3775 18.856 95.9109 18.752 96.5029 18.752ZM96.5269 19.864C95.8602 19.864 95.3349 20.0587 94.9509 20.448C94.5722 20.832 94.3349 21.3653 94.2389 22.048H98.5509C98.5509 21.728 98.5055 21.4347 98.4149 21.168C98.3242 20.9013 98.1909 20.672 98.0149 20.48C97.8442 20.288 97.6335 20.1387 97.3829 20.032C97.1322 19.92 96.8469 19.864 96.5269 19.864ZM99.0469 17.648H98.0309C97.9029 17.648 97.7909 17.608 97.6949 17.528L96.7029 16.472C96.6602 16.4347 96.6149 16.384 96.5669 16.32L96.4309 16.472L95.4229 17.528C95.3909 17.56 95.3429 17.5893 95.2789 17.616C95.2202 17.6373 95.1589 17.648 95.0949 17.648H94.0389L95.8389 15.52H97.2469L99.0469 17.648ZM101.503 14.264L99.5749 15.992C99.4095 16.1627 99.2495 16.2427 99.0949 16.232C98.9402 16.2213 98.8015 16.1387 98.6789 15.984L98.4629 15.728L99.3669 14.624C99.4095 14.5653 99.4495 14.5147 99.4869 14.472C99.5295 14.424 99.5749 14.3867 99.6229 14.36C99.6709 14.328 99.7269 14.304 99.7909 14.288C99.8549 14.272 99.9322 14.264 100.023 14.264H101.503ZM101.62 27V18.88H102.532C102.745 18.88 102.878 18.9813 102.932 19.184L103.036 19.976C103.334 19.6187 103.668 19.3253 104.036 19.096C104.404 18.8667 104.833 18.752 105.324 18.752C105.868 18.752 106.308 18.9013 106.644 19.2C106.98 19.4933 107.222 19.8933 107.372 20.4C107.489 20.112 107.641 19.864 107.828 19.656C108.014 19.448 108.222 19.2773 108.452 19.144C108.681 19.0107 108.924 18.912 109.18 18.848C109.441 18.784 109.705 18.752 109.972 18.752C110.841 18.752 111.513 19.0187 111.988 19.552C112.462 20.08 112.7 20.8373 112.7 21.824V27H111.18V21.824C111.18 21.2107 111.044 20.7467 110.772 20.432C110.505 20.1173 110.116 19.96 109.604 19.96C109.374 19.96 109.156 20 108.948 20.08C108.745 20.16 108.566 20.2773 108.412 20.432C108.257 20.5867 108.134 20.7813 108.044 21.016C107.953 21.2507 107.908 21.52 107.908 21.824V27H106.388V21.824C106.388 21.1947 106.26 20.728 106.004 20.424C105.753 20.1147 105.382 19.96 104.892 19.96C104.556 19.96 104.238 20.0507 103.94 20.232C103.646 20.408 103.38 20.6533 103.14 20.968V27H101.62ZM126.533 19.016V27H125.013V20.12H120.901V24.912C120.901 25.2373 120.979 25.4827 121.133 25.648C121.293 25.808 121.501 25.888 121.757 25.888C121.901 25.888 122.027 25.8693 122.133 25.832C122.24 25.7947 122.331 25.752 122.405 25.704C122.48 25.656 122.544 25.6133 122.597 25.576C122.656 25.5387 122.707 25.52 122.749 25.52C122.797 25.52 122.835 25.5307 122.861 25.552C122.893 25.5733 122.925 25.6107 122.957 25.664L123.405 26.392C123.149 26.6267 122.845 26.808 122.493 26.936C122.147 27.064 121.787 27.128 121.413 27.128C120.763 27.128 120.261 26.9467 119.909 26.584C119.557 26.2213 119.381 25.6987 119.381 25.016V20.12H118.429C118.339 20.12 118.264 20.0933 118.205 20.04C118.147 19.9813 118.117 19.8987 118.117 19.792V19.184L119.437 19.008L119.781 16.552C119.803 16.4667 119.843 16.4 119.901 16.352C119.96 16.2987 120.037 16.272 120.133 16.272H120.901V19.016H126.533ZM126.885 16.304C126.885 16.448 126.856 16.584 126.797 16.712C126.739 16.84 126.661 16.952 126.565 17.048C126.469 17.1387 126.355 17.2133 126.221 17.272C126.093 17.3253 125.957 17.352 125.813 17.352C125.669 17.352 125.533 17.3253 125.405 17.272C125.283 17.2133 125.173 17.1387 125.077 17.048C124.987 16.952 124.912 16.84 124.853 16.712C124.8 16.584 124.773 16.448 124.773 16.304C124.773 16.16 124.8 16.024 124.853 15.896C124.912 15.7627 124.987 15.648 125.077 15.552C125.173 15.456 125.283 15.3813 125.405 15.328C125.533 15.2693 125.669 15.24 125.813 15.24C125.957 15.24 126.093 15.2693 126.221 15.328C126.355 15.3813 126.469 15.456 126.565 15.552C126.661 15.648 126.739 15.7627 126.797 15.896C126.856 16.024 126.885 16.16 126.885 16.304ZM128.807 27V18.88H129.719C129.932 18.88 130.066 18.9813 130.119 19.184L130.231 20.024C130.583 19.6453 130.975 19.3387 131.407 19.104C131.839 18.8693 132.338 18.752 132.903 18.752C133.346 18.752 133.735 18.8267 134.071 18.976C134.412 19.1253 134.698 19.336 134.927 19.608C135.156 19.8747 135.33 20.1973 135.447 20.576C135.564 20.9493 135.623 21.3653 135.623 21.824V27H134.103V21.824C134.103 21.2373 133.967 20.7813 133.695 20.456C133.423 20.1253 133.01 19.96 132.455 19.96C132.044 19.96 131.663 20.056 131.311 20.248C130.959 20.44 130.631 20.704 130.327 21.04V27H128.807ZM141.807 27V18.88H142.719C142.932 18.88 143.066 18.9813 143.119 19.184L143.231 20.024C143.583 19.6453 143.975 19.3387 144.407 19.104C144.839 18.8693 145.338 18.752 145.903 18.752C146.346 18.752 146.735 18.8267 147.071 18.976C147.412 19.1253 147.698 19.336 147.927 19.608C148.156 19.8747 148.33 20.1973 148.447 20.576C148.564 20.9493 148.623 21.3653 148.623 21.824V27H147.103V21.824C147.103 21.2373 146.967 20.7813 146.695 20.456C146.423 20.1253 146.01 19.96 145.455 19.96C145.044 19.96 144.663 20.056 144.311 20.248C143.959 20.44 143.631 20.704 143.327 21.04V27H141.807ZM150.745 27V15.2H152.265V19.92C152.606 19.568 152.985 19.2853 153.401 19.072C153.817 18.8587 154.297 18.752 154.841 18.752C155.283 18.752 155.673 18.8267 156.009 18.976C156.35 19.1253 156.635 19.336 156.865 19.608C157.094 19.8747 157.267 20.1973 157.385 20.576C157.502 20.9493 157.561 21.3653 157.561 21.824V27H156.041V21.824C156.041 21.2373 155.905 20.7813 155.633 20.456C155.361 20.1253 154.947 19.96 154.393 19.96C153.982 19.96 153.601 20.056 153.249 20.248C152.897 20.44 152.569 20.704 152.265 21.04V27H150.745ZM164.874 27C164.725 27 164.61 26.976 164.53 26.928C164.45 26.88 164.386 26.7867 164.338 26.648L164.17 25.92C163.962 26.112 163.757 26.2853 163.554 26.44C163.351 26.5893 163.138 26.7147 162.914 26.816C162.695 26.9173 162.461 26.9947 162.21 27.048C161.959 27.1013 161.679 27.128 161.37 27.128C161.05 27.128 160.751 27.0853 160.474 27C160.197 26.9093 159.954 26.7733 159.746 26.592C159.543 26.4107 159.381 26.1867 159.258 25.92C159.141 25.648 159.082 25.328 159.082 24.96C159.082 24.64 159.167 24.3333 159.338 24.04C159.514 23.7467 159.797 23.4853 160.186 23.256C160.581 23.0213 161.093 22.8293 161.722 22.68C162.357 22.5307 163.135 22.4453 164.058 22.424V21.816C164.058 21.2027 163.925 20.7413 163.658 20.432C163.397 20.1173 163.01 19.96 162.498 19.96C162.151 19.96 161.861 20.0053 161.626 20.096C161.397 20.1813 161.197 20.2773 161.026 20.384C160.861 20.4853 160.714 20.5787 160.586 20.664C160.458 20.7493 160.33 20.792 160.202 20.792C160.095 20.792 160.005 20.7653 159.93 20.712C159.861 20.6533 159.799 20.5867 159.746 20.512L159.474 20.016C159.927 19.5893 160.415 19.2693 160.938 19.056C161.466 18.8427 162.047 18.736 162.682 18.736C163.141 18.736 163.549 18.8107 163.906 18.96C164.263 19.1093 164.562 19.32 164.802 19.592C165.047 19.8587 165.231 20.1813 165.354 20.56C165.482 20.9387 165.546 21.3573 165.546 21.816V27H164.874ZM161.826 26.064C162.066 26.064 162.287 26.04 162.49 25.992C162.698 25.944 162.89 25.8747 163.066 25.784C163.247 25.6933 163.418 25.584 163.578 25.456C163.738 25.3227 163.898 25.1733 164.058 25.008V23.376C163.418 23.3973 162.874 23.448 162.426 23.528C161.978 23.608 161.613 23.712 161.33 23.84C161.053 23.968 160.85 24.1227 160.722 24.304C160.594 24.48 160.53 24.6747 160.53 24.888C160.53 25.096 160.562 25.2747 160.626 25.424C160.695 25.5733 160.789 25.696 160.906 25.792C161.023 25.8827 161.159 25.952 161.314 26C161.474 26.0427 161.645 26.064 161.826 26.064ZM162.506 17.688C162.026 17.688 161.621 17.632 161.29 17.52C160.959 17.4027 160.69 17.2453 160.482 17.048C160.274 16.8507 160.125 16.6213 160.034 16.36C159.943 16.0933 159.898 15.8133 159.898 15.52H160.97C160.97 15.696 160.997 15.856 161.05 16C161.109 16.144 161.199 16.2693 161.322 16.376C161.445 16.4773 161.602 16.5573 161.794 16.616C161.991 16.6747 162.229 16.704 162.506 16.704C162.783 16.704 163.018 16.6747 163.21 16.616C163.407 16.5573 163.567 16.4773 163.69 16.376C163.813 16.2693 163.901 16.144 163.954 16C164.013 15.856 164.042 15.696 164.042 15.52H165.114C165.114 15.8133 165.069 16.0933 164.978 16.36C164.887 16.6213 164.738 16.8507 164.53 17.048C164.322 17.2453 164.053 17.4027 163.722 17.52C163.391 17.632 162.986 17.688 162.506 17.688ZM165.17 13.424L163.282 15.488C163.207 15.5733 163.133 15.6347 163.058 15.672C162.983 15.704 162.885 15.72 162.762 15.72H161.858L163.034 13.784C163.109 13.6613 163.191 13.5707 163.282 13.512C163.373 13.4533 163.509 13.424 163.69 13.424H165.17ZM167.667 27V18.88H168.579C168.792 18.88 168.925 18.9813 168.979 19.184L169.091 20.024C169.443 19.6453 169.835 19.3387 170.267 19.104C170.699 18.8693 171.197 18.752 171.763 18.752C172.205 18.752 172.595 18.8267 172.931 18.976C173.272 19.1253 173.557 19.336 173.787 19.608C174.016 19.8747 174.189 20.1973 174.307 20.576C174.424 20.9493 174.483 21.3653 174.483 21.824V27H172.963V21.824C172.963 21.2373 172.827 20.7813 172.555 20.456C172.283 20.1253 171.869 19.96 171.315 19.96C170.904 19.96 170.523 20.056 170.171 20.248C169.819 20.44 169.491 20.704 169.187 21.04V27H167.667ZM176.356 26.08C176.356 25.936 176.383 25.8027 176.436 25.68C176.489 25.552 176.561 25.44 176.652 25.344C176.743 25.248 176.852 25.1733 176.98 25.12C177.108 25.0667 177.244 25.04 177.388 25.04C177.532 25.04 177.665 25.0667 177.788 25.12C177.916 25.1733 178.025 25.248 178.116 25.344C178.212 25.44 178.287 25.552 178.34 25.68C178.393 25.8027 178.42 25.936 178.42 26.08C178.42 26.2293 178.393 26.368 178.34 26.496C178.287 26.6187 178.212 26.728 178.116 26.824C178.025 26.9147 177.916 26.9867 177.788 27.04C177.665 27.0933 177.532 27.12 177.388 27.12C177.244 27.12 177.108 27.0933 176.98 27.04C176.852 26.9867 176.743 26.9147 176.652 26.824C176.561 26.728 176.489 26.6187 176.436 26.496C176.383 26.368 176.356 26.2293 176.356 26.08ZM180.137 26.08C180.137 25.936 180.164 25.8027 180.217 25.68C180.271 25.552 180.343 25.44 180.433 25.344C180.524 25.248 180.633 25.1733 180.761 25.12C180.889 25.0667 181.025 25.04 181.169 25.04C181.313 25.04 181.447 25.0667 181.569 25.12C181.697 25.1733 181.807 25.248 181.897 25.344C181.993 25.44 182.068 25.552 182.121 25.68C182.175 25.8027 182.201 25.936 182.201 26.08C182.201 26.2293 182.175 26.368 182.121 26.496C182.068 26.6187 181.993 26.728 181.897 26.824C181.807 26.9147 181.697 26.9867 181.569 27.04C181.447 27.0933 181.313 27.12 181.169 27.12C181.025 27.12 180.889 27.0933 180.761 27.04C180.633 26.9867 180.524 26.9147 180.433 26.824C180.343 26.728 180.271 26.6187 180.217 26.496C180.164 26.368 180.137 26.2293 180.137 26.08ZM183.919 26.08C183.919 25.936 183.945 25.8027 183.999 25.68C184.052 25.552 184.124 25.44 184.215 25.344C184.305 25.248 184.415 25.1733 184.543 25.12C184.671 25.0667 184.807 25.04 184.951 25.04C185.095 25.04 185.228 25.0667 185.351 25.12C185.479 25.1733 185.588 25.248 185.679 25.344C185.775 25.44 185.849 25.552 185.903 25.68C185.956 25.8027 185.983 25.936 185.983 26.08C185.983 26.2293 185.956 26.368 185.903 26.496C185.849 26.6187 185.775 26.728 185.679 26.824C185.588 26.9147 185.479 26.9867 185.351 27.04C185.228 27.0933 185.095 27.12 184.951 27.12C184.807 27.12 184.671 27.0933 184.543 27.04C184.415 26.9867 184.305 26.9147 184.215 26.824C184.124 26.728 184.052 26.6187 183.999 26.496C183.945 26.368 183.919 26.2293 183.919 26.08Z" fill="#999999"/>
<g clip-path="url(#clip0_29_389)">
<path d="M34.3604 26.1845L31.3978 23.2219C31.9364 22.1446 32.2955 20.8878 32.2955 19.6309C32.2955 15.4115 28.8841 12 24.6646 12C20.4451 12 17.0337 15.4115 17.0337 19.6309C17.0337 23.8504 20.4451 27.2618 24.6646 27.2618C25.9215 27.2618 27.1783 26.9027 28.2556 26.3641L31.2182 29.3267C32.116 30.2244 33.4626 30.2244 34.3604 29.3267C35.1683 28.4289 35.1683 27.0823 34.3604 26.1845ZM24.6646 25.4663C21.4327 25.4663 18.8292 22.8628 18.8292 19.6309C18.8292 16.399 21.4327 13.7955 24.6646 13.7955C27.8965 13.7955 30.5 16.399 30.5 19.6309C30.5 22.8628 27.8965 25.4663 24.6646 25.4663Z" fill="#4356B4"/>
</g>
<defs>
<clipPath id="clip0_29_389">
<rect width="18" height="18" fill="white" transform="translate(17 12)"/>
</clipPath>
</defs>
</svg>
