<svg width="24" height="22" viewBox="0 0 24 22" fill="none" xmlns="http://www.w3.org/2000/svg">
<path d="M22.5712 8.85951L3.20743 0.824656C2.39166 0.486125 1.47005 0.635047 0.802319 1.21311C0.134585 1.79127 -0.144696 2.68208 0.0735535 3.53788L1.7971 10.2969H10.2358C10.6241 10.2969 10.939 10.6117 10.939 11.0001C10.939 11.3884 10.6242 11.7032 10.2358 11.7032H1.7971L0.0735535 18.4622C-0.144696 19.318 0.134538 20.2088 0.802319 20.787C1.47141 21.3662 2.39312 21.5133 3.20748 21.1754L22.5713 13.1406C23.4529 12.7748 24.0005 11.9546 24.0005 11.0001C24.0005 10.0455 23.4529 9.22527 22.5712 8.85951Z" fill="#4356B4"/>
</svg>
